<svg width="25" height="25" viewBox="0 0 25 25" fill="none" xmlns="http://www.w3.org/2000/svg">
  <g clip-path="url(#clip0_2203_103)">
    <path opacity="0.3" fill-rule="evenodd" clip-rule="evenodd"
      d="M8.23955 3.33081C7.54919 3.33081 6.98955 3.89045 6.98955 4.58081V21.0808C6.98955 21.7712 7.54919 22.3308 8.23955 22.3308H16.2395C16.9299 22.3308 17.4895 21.7712 17.4895 21.0808V4.58081C17.4895 3.89045 16.9299 3.33081 16.2395 3.33081H8.23955Z"
      fill="white" />
    <path fill-rule="evenodd" clip-rule="evenodd"
      d="M8.23955 3.33081C7.54919 3.33081 6.98955 3.89045 6.98955 4.58081V21.0808C6.98955 21.7712 7.54919 22.3308 8.23955 22.3308H16.2395C16.9299 22.3308 17.4895 21.7712 17.4895 21.0808V4.58081C17.4895 3.89045 16.9299 3.33081 16.2395 3.33081H8.23955ZM8.23955 1.83081H16.2395C17.7583 1.83081 18.9895 3.06203 18.9895 4.58081V21.0808C18.9895 22.5996 17.7583 23.8308 16.2395 23.8308H8.23955C6.72076 23.8308 5.48955 22.5996 5.48955 21.0808V4.58081C5.48955 3.06203 6.72076 1.83081 8.23955 1.83081ZM9.73955 2.58081H14.7395C15.0157 2.58081 15.2395 2.80467 15.2395 3.08081V4.08081C15.2395 4.35695 15.0157 4.58081 14.7395 4.58081H9.73955C9.46341 4.58081 9.23955 4.35695 9.23955 4.08081V3.08081C9.23955 2.80467 9.46341 2.58081 9.73955 2.58081Z"
      fill="#0A87FF" />
  </g>
  <defs>
    <clipPath id="clip0_2203_103">
      <rect width="24" height="24" fill="white" transform="translate(0.239548 0.830811)" />
    </clipPath>
  </defs>
</svg>