<svg width="20" height="19" viewBox="0 0 20 19" fill="none" xmlns="http://www.w3.org/2000/svg">
  <path
    d="M4.93988 2.16287C4.93962 2.6933 4.72865 3.2019 4.35339 3.57679C3.97813 3.95167 3.46931 4.16213 2.93888 4.16187C2.40845 4.1616 1.89985 3.95063 1.52496 3.57537C1.15007 3.20011 0.939615 2.6913 0.939881 2.16087C0.940146 1.63043 1.15111 1.12183 1.52637 0.746945C1.90163 0.372059 2.41045 0.1616 2.94088 0.161865C3.47131 0.162131 3.97992 0.373099 4.3548 0.748359C4.72969 1.12362 4.94015 1.63243 4.93988 2.16287ZM4.99988 5.64287H0.999881V18.1629H4.99988V5.64287ZM11.3199 5.64287H7.33988V18.1629H11.2799V11.5929C11.2799 7.93287 16.0499 7.59287 16.0499 11.5929V18.1629H19.9999V10.2329C19.9999 4.06287 12.9399 4.29287 11.2799 7.32287L11.3199 5.64287Z"
    fill="#0A87FF" />
</svg>