<svg width="561" height="468" viewBox="0 0 561 468" fill="none" xmlns="http://www.w3.org/2000/svg">
<rect x="132.494" y="57.6279" width="298.136" height="298.136" rx="66.3916" fill="#0A87FF"/>
<circle cx="280.935" cy="206.07" r="119.004" fill="#414A65" stroke="white" stroke-width="23.8008"/>
<circle cx="232.708" cy="204.817" r="26.9325" fill="white"/>
<circle cx="331.043" cy="204.817" r="26.9325" fill="white"/>
<path d="M519.265 269.143C550.495 219.433 555.684 192.108 515.236 145.592" stroke="black" stroke-width="32.2309" stroke-linecap="round"/>
<path d="M41.8662 268.472C10.6361 218.761 5.44775 191.437 45.895 144.92" stroke="black" stroke-width="32.2309" stroke-linecap="round"/>
<path d="M476.291 195.952C480.319 40.8411 470.247 8.60968 294.992 18.6815" stroke="#0A87FF" stroke-width="32.2309"/>
<path d="M86.1276 196.291C82.0987 41.1805 92.1709 8.94916 267.427 19.021" stroke="#0A87FF" stroke-width="32.2309"/>
<path d="M476.291 220.797C478.976 394.71 450.774 394.71 322.521 394.71L282.904 441.713L247.315 394.71C78.7759 400.753 87.5048 351.064 87.5046 220.125" stroke="#0A87FF" stroke-width="32.2309"/>
</svg>
