<svg width="25" height="25" viewBox="0 0 25 25" fill="none" xmlns="http://www.w3.org/2000/svg">
  <path opacity="0.3"
    d="M20.5519 3.83081H4.43244C3.31963 3.83081 2.41751 4.72624 2.41751 5.83081V19.8308C2.41751 20.9354 3.31963 21.8308 4.43244 21.8308H20.5519C21.6647 21.8308 22.5668 20.9354 22.5668 19.8308V5.83081C22.5668 4.72624 21.6647 3.83081 20.5519 3.83081Z"
    fill="white" />
  <path fill-rule="evenodd" clip-rule="evenodd"
    d="M10.4256 14.1471C10.2884 14.5554 9.90344 14.8308 9.4698 14.8308H5.43993C4.88352 14.8308 4.43246 14.3831 4.43246 13.8308C4.43246 13.2786 4.88352 12.8308 5.43993 12.8308H8.74366L10.529 7.51462C10.8477 6.56551 12.2177 6.61774 12.4621 7.58831L14.3203 14.9658L15.1172 13.3836C15.2879 13.0449 15.6367 12.8308 16.0183 12.8308H19.5445C20.1009 12.8308 20.5519 13.2786 20.5519 13.8308C20.5519 14.3831 20.1009 14.8308 19.5445 14.8308H16.641L14.9045 18.2781C14.4862 19.1085 13.2529 18.9741 13.026 18.0734L11.3464 11.4049L10.4256 14.1471Z"
    fill="#0A87FF" />
  <path opacity="0.3"
    d="M19.5445 7.83081C20.1009 7.83081 20.5519 7.3831 20.5519 6.83081C20.5519 6.27853 20.1009 5.83081 19.5445 5.83081C18.988 5.83081 18.537 6.27853 18.537 6.83081C18.537 7.3831 18.988 7.83081 19.5445 7.83081Z"
    fill="#0A87FF" />
</svg>