<svg width="81" height="81" viewBox="0 0 81 81" fill="none" xmlns="http://www.w3.org/2000/svg">
  <circle cx="40.6158" cy="40.8238" r="39.8913" fill="#0A87FF" />
  <path
    d="M35.5047 25.6539L37.3903 29.1271C36.3317 30.6254 35.3393 32.2939 34.413 34.1327C33.5529 35.9715 33.0567 37.8783 32.9244 39.8533L38.3828 40.8749V52.6226H23.1985V44.246C23.1985 39.4107 24.2901 35.5288 26.4735 32.6004C28.723 29.6038 31.7334 27.2883 35.5047 25.6539ZM55.155 25.6539L57.0407 29.1271C55.9821 30.6254 54.9896 32.2939 54.0633 34.1327C53.2032 35.9715 52.707 37.8783 52.5747 39.8533L58.0331 40.8749V52.6226H42.8488V44.246C42.8488 39.4107 43.9405 35.5288 46.1238 32.6004C48.3734 29.6038 51.3838 27.2883 55.155 25.6539Z"
    fill="white" />
</svg>