<svg width="25" height="25" viewBox="0 0 25 25" fill="none" xmlns="http://www.w3.org/2000/svg">
  <path fill-rule="evenodd" clip-rule="evenodd"
    d="M6.51515 8.04645V16.0464H18.5151V8.04645H6.51515ZM20.5151 16.0464H21.8971C22.2759 16.0464 22.6222 16.2604 22.7915 16.5992L23.0151 17.0464C23.1858 17.3878 23.0475 17.8028 22.7061 17.9735C22.6102 18.0215 22.5044 18.0464 22.3971 18.0464H2.63318C2.25156 18.0464 1.9422 17.7371 1.9422 17.3555C1.9422 17.2482 1.96718 17.1424 2.01515 17.0464L2.23876 16.5992C2.40815 16.2604 2.75441 16.0464 3.13318 16.0464H4.51515V8.04645C4.51515 6.94188 5.41058 6.04645 6.51515 6.04645H18.5151C19.6197 6.04645 20.5151 6.94188 20.5151 8.04645V16.0464Z"
    fill="#0A87FF" />
  <path opacity="0.3" fill-rule="evenodd" clip-rule="evenodd"
    d="M6.51514 8.04645V16.0464H18.5151V8.04645H6.51514Z" fill="white" />
</svg>