<svg width="423" height="37" viewBox="0 0 423 37" fill="none" xmlns="http://www.w3.org/2000/svg">
  <path fill-rule="evenodd" clip-rule="evenodd"
    d="M253.152 16.5466C196.859 17.186 140.537 19.7226 84.4884 24.2565C57.8411 26.4125 26.8957 26.143 1.05116 33.4934C-0.236605 33.8633 0.00864519 34.973 0.0365189 35.084C0.0922664 35.3112 0.326466 36.0668 1.35222 36.1038C1.46371 36.1091 2.2497 36.0034 2.55073 35.9664C10.1826 35.0152 17.7865 33.9056 25.4239 33.0073C51.7925 29.8948 78.2391 27.5433 104.725 25.4825C139.879 22.7452 175.334 21.2867 210.584 20.1453C229.878 19.5217 249.635 20.3513 268.99 19.062C276.098 19.025 283.206 19.0198 290.314 19.0409C320.027 19.1413 349.707 20.2088 379.37 21.6725C388.909 22.1428 396.183 22.6501 405.521 22.9936C409.067 23.1257 414.692 23.2155 418.605 23.2737C419.179 23.2842 420.645 23.2947 421.253 23.3C421.314 23.3106 421.376 23.3106 421.443 23.3106C421.677 23.3106 421.788 23.2947 421.811 23.2947C423.137 23.1097 423.015 21.9208 422.981 21.7411C422.976 21.7042 422.775 20.7001 421.632 20.6631C421.359 20.6526 419.402 20.6421 418.65 20.6315C414.759 20.5734 409.156 20.4836 405.627 20.3567C396.306 20.0132 389.037 19.506 379.515 19.0357C349.807 17.5719 320.083 16.4992 290.325 16.3988C286.69 16.3882 283.05 16.3829 279.415 16.3882C279.292 16.087 279.019 15.7488 278.417 15.6009C277.854 15.4635 273.823 15.342 272.268 15.2204C260.756 14.3221 261.096 14.3644 248.431 13.6298C229.248 12.5149 226.327 12.2611 206.375 11.7908C170.133 10.9347 133.875 11.0035 97.628 11.0881C79.7331 11.1356 60.5727 12.2823 42.4046 10.1422C48.3919 9.47633 54.4015 8.99019 60.3999 8.43534C80.8815 6.54356 101.38 5.37039 121.945 4.54604C171.276 2.56972 220.685 1.78242 269.999 4.47741C259.502 4.57252 249.01 4.7944 238.513 4.93707C195.783 5.52891 152.64 5.08508 109.998 8.15525C109.235 8.21338 108.66 8.84746 108.716 9.57141C108.772 10.3006 109.446 10.845 110.21 10.7921C152.796 7.72194 195.877 8.17106 238.552 7.57922C254.407 7.36256 270.256 6.97156 286.11 7.08782C291.551 7.13009 296.992 7.32036 302.433 7.38377C303.509 7.39962 306.28 7.60042 306.675 7.51587C307.551 7.33092 307.74 6.71791 307.796 6.4167C307.824 6.23703 307.913 5.20131 306.575 4.83141C297.444 2.30552 280.591 2.42178 271.716 1.92505C221.794 -0.875622 171.772 -0.0935669 121.828 1.9039C101.213 2.73353 80.6641 3.912 60.1267 5.80906C52.952 6.4696 45.7606 7.04029 38.6138 7.91749C37.4598 8.06016 34.8676 8.26629 33.6133 8.48294C33.0892 8.57277 32.7101 8.69951 32.5429 8.78934C31.8906 9.13811 31.7736 9.64541 31.7736 9.98889C31.768 10.2531 31.8851 11.1831 33.2509 11.4368C54.0614 15.2996 76.706 13.783 97.6336 13.7302C133.858 13.6457 170.089 13.5769 206.308 14.4329C226.21 14.9032 229.12 15.1517 248.263 16.2667C250.153 16.3724 251.753 16.4674 253.152 16.5466Z"
    fill="#0A87FF" />
</svg>