<svg width="48" height="49" viewBox="0 0 48 49" fill="none" xmlns="http://www.w3.org/2000/svg">
<circle cx="23.9999" cy="24.3911" r="24" fill="#198EFF"/>
<path d="M26 33.3911H22M30 20.3911C30 18.7998 29.3678 17.2737 28.2426 16.1485C27.1174 15.0233 25.5913 14.3911 24 14.3911C22.4087 14.3911 20.8825 15.0233 19.7573 16.1485C18.6321 17.2737 18 18.7998 18 20.3911C18 23.4813 17.2204 25.5971 16.3496 26.9965C15.6151 28.177 15.2478 28.7672 15.2613 28.9319C15.2762 29.1142 15.3148 29.1837 15.4617 29.2927C15.5944 29.3911 16.1925 29.3911 17.3888 29.3911H30.6111C31.8074 29.3911 32.4055 29.3911 32.5382 29.2927C32.6851 29.1837 32.7237 29.1142 32.7386 28.9319C32.7521 28.7672 32.3848 28.177 31.6503 26.9965C30.7795 25.5971 30 23.4813 30 20.3911Z" stroke="white" stroke-width="2" stroke-linecap="round" stroke-linejoin="round"/>
</svg>
