<svg width="20" height="19" viewBox="0 0 20 19" fill="none" xmlns="http://www.w3.org/2000/svg">
  <path
    d="M14.9389 0.983887C16.2799 0.983887 17.5699 1.51389 18.5189 2.46489C19.4689 3.41389 19.9999 4.69389 19.9999 6.03389V13.9339C19.9999 16.7239 17.7299 18.9839 14.9389 18.9839H5.05988C2.26888 18.9839 -0.00012207 16.7239 -0.00012207 13.9339V6.03389C-0.00012207 3.24389 2.25888 0.983887 5.05988 0.983887H14.9389ZM16.0699 6.18389C15.8599 6.17289 15.6599 6.24389 15.5089 6.38389L10.9999 9.98389C10.4199 10.4649 9.58888 10.4649 8.99988 9.98389L4.49988 6.38389C4.18888 6.15389 3.75888 6.18389 3.49988 6.45389C3.22988 6.72389 3.19988 7.15389 3.42888 7.45389L3.55988 7.58389L8.10988 11.1339C8.66988 11.5739 9.34888 11.8139 10.0599 11.8139C10.7689 11.8139 11.4599 11.5739 12.0189 11.1339L16.5299 7.52389L16.6099 7.44389C16.8489 7.15389 16.8489 6.73389 16.5989 6.44389C16.4599 6.29489 16.2689 6.20389 16.0699 6.18389Z"
    fill="#0A87FF" />
</svg>