<svg width="21" height="21" viewBox="0 0 21 21" fill="none" xmlns="http://www.w3.org/2000/svg">
  <g clip-path="url(#clip0_2219_23)">
    <path
      d="M16.078 0.162842H4.92175C2.20348 0.162842 -0.00012207 2.26151 -0.00012207 4.85034V15.4753C-0.00012207 18.0642 2.20348 20.1628 4.92175 20.1628H16.078C18.7963 20.1628 20.9999 18.0642 20.9999 15.4753V4.85034C20.9999 2.26151 18.7963 0.162842 16.078 0.162842Z"
      fill="url(#paint0_linear_2219_23)" />
    <path
      d="M16.078 0.162842H4.92175C2.20348 0.162842 -0.00012207 2.26151 -0.00012207 4.85034V15.4753C-0.00012207 18.0642 2.20348 20.1628 4.92175 20.1628H16.078C18.7963 20.1628 20.9999 18.0642 20.9999 15.4753V4.85034C20.9999 2.26151 18.7963 0.162842 16.078 0.162842Z"
      fill="url(#paint1_linear_2219_23)" />
    <path
      d="M10.5006 2.35034C8.27281 2.35034 7.99317 2.35964 7.11822 2.39753C6.24492 2.43565 5.6488 2.56729 5.12724 2.7605C4.58764 2.96003 4.12999 3.22698 3.67406 3.66136C3.21772 4.09565 2.93742 4.53151 2.72725 5.04519C2.52382 5.54206 2.38543 6.11003 2.34614 6.94136C2.30701 7.77472 2.29675 8.04112 2.29675 10.1629C2.29675 12.2847 2.3066 12.5502 2.3463 13.3835C2.3865 14.2152 2.52472 14.7829 2.72742 15.2796C2.93709 15.7935 3.21739 16.2294 3.67348 16.6636C4.12933 17.0982 4.58698 17.3658 5.12617 17.5653C5.64814 17.7585 6.24434 17.8902 7.11748 17.9283C7.99251 17.9662 8.27191 17.9755 10.4996 17.9755C12.7277 17.9755 13.0064 17.9662 13.8814 17.9283C14.7547 17.8902 15.3515 17.7585 15.8734 17.5653C16.4128 17.3658 16.8698 17.0982 17.3255 16.6636C17.7819 16.2294 18.0621 15.7935 18.2723 15.2799C18.474 14.7829 18.6124 14.215 18.6535 13.3836C18.6927 12.5503 18.703 12.2847 18.703 10.1629C18.703 8.04112 18.6927 7.77487 18.6535 6.94151C18.6124 6.10979 18.474 5.54214 18.2723 5.04542C18.0621 4.53151 17.7819 4.09565 17.3255 3.66136C16.8693 3.22683 16.4129 2.95987 15.8729 2.76058C15.35 2.56729 14.7535 2.43558 13.8802 2.39753C13.0052 2.35964 12.7266 2.35034 10.4981 2.35034H10.5006ZM9.76471 3.75823C9.98316 3.75792 10.2269 3.75823 10.5006 3.75823C12.6909 3.75823 12.9505 3.76573 13.8154 3.80315C14.6152 3.838 15.0493 3.96526 15.3385 4.07222C15.7213 4.21378 15.9942 4.38308 16.2812 4.65659C16.5683 4.93003 16.746 5.19042 16.895 5.55503C17.0073 5.83003 17.1411 6.24347 17.1776 7.00519C17.2168 7.82878 17.2254 8.07612 17.2254 10.1611C17.2254 12.2461 17.2168 12.4935 17.1776 13.3171C17.141 14.0788 17.0073 14.4922 16.895 14.7673C16.7464 15.1319 16.5683 15.3915 16.2812 15.6648C15.9941 15.9382 15.7215 16.1075 15.3385 16.2491C15.0497 16.3565 14.6152 16.4835 13.8154 16.5183C12.9506 16.5557 12.6909 16.5639 10.5006 16.5639C8.31022 16.5639 8.05059 16.5557 7.1859 16.5183C6.38609 16.4832 5.95198 16.3559 5.66258 16.2489C5.27982 16.1073 5.00633 15.9381 4.71922 15.6646C4.43211 15.3912 4.25443 15.1314 4.10538 14.7667C3.99308 14.4916 3.85928 14.0782 3.82286 13.3164C3.78357 12.4928 3.77569 12.2455 3.77569 10.1592C3.77569 8.07284 3.78357 7.82683 3.82286 7.00323C3.85945 6.24151 3.99308 5.82808 4.10538 5.55269C4.2541 5.18808 4.43211 4.92769 4.7193 4.65425C5.00649 4.38081 5.27982 4.21151 5.66266 4.06964C5.95182 3.96222 6.38609 3.83526 7.1859 3.80026C7.94264 3.76769 8.2359 3.75792 9.76471 3.75628V3.75823ZM14.8794 5.05542C14.336 5.05542 13.8951 5.47495 13.8951 5.99261C13.8951 6.51019 14.336 6.93011 14.8794 6.93011C15.4229 6.93011 15.8638 6.51019 15.8638 5.99261C15.8638 5.47503 15.4229 5.05542 14.8794 5.05542ZM10.5006 6.15081C8.17421 6.15081 6.28798 7.94722 6.28798 10.1629C6.28798 12.3786 8.17421 14.1742 10.5006 14.1742C12.8271 14.1742 14.7127 12.3786 14.7127 10.1629C14.7127 7.9473 12.8271 6.15081 10.5006 6.15081ZM10.5006 7.5587C12.0107 7.5587 13.235 8.72456 13.235 10.1629C13.235 11.6011 12.0107 12.7671 10.5006 12.7671C8.9905 12.7671 7.76627 11.6011 7.76627 10.1629C7.76627 8.72456 8.99042 7.5587 10.5006 7.5587Z"
      fill="white" />
  </g>
  <defs>
    <linearGradient id="paint0_linear_2219_23" x1="5.578" y1="41.5247" x2="5.578" y2="1.88175"
      gradientUnits="userSpaceOnUse">
      <stop offset="1" stop-color="#0A87FF" />
    </linearGradient>
    <linearGradient id="paint1_linear_2219_23" x1="-5.34368" y1="-7.08443" x2="-2.01935" y2="10.354"
      gradientUnits="userSpaceOnUse">
      <stop offset="1" stop-color="#198EFF" />
    </linearGradient>
    <clipPath id="clip0_2219_23">
      <rect width="21" height="20" fill="white" transform="translate(-0.00012207 0.162842)" />
    </clipPath>
  </defs>
</svg>