<svg width="1587" height="1587" viewBox="0 0 1587 1587" fill="none"
  xmlns="http://www.w3.org/2000/svg">
  <path
    d="M1018.67 568.145C1136.36 685.833 1209.75 825.503 1233.29 956.163C1256.83 1086.83 1230.51 1208.43 1148.85 1290.08C1067.2 1371.73 945.6 1398.05 814.938 1374.51C684.278 1350.97 544.608 1277.58 426.921 1159.89C309.233 1042.21 235.842 902.537 212.303 771.877C188.764 641.215 215.083 519.614 296.736 437.961C378.389 356.308 499.99 329.989 630.652 353.528C761.312 377.066 900.982 450.458 1018.67 568.145Z"
    stroke="black" />
  <path
    d="M1089.23 497.589C1206.91 615.276 1280.31 754.946 1303.84 885.606C1327.38 1016.27 1301.06 1137.87 1219.41 1219.52C1137.76 1301.18 1016.16 1327.49 885.495 1303.96C754.835 1280.42 615.165 1207.03 497.477 1089.34C379.79 971.65 306.398 831.98 282.86 701.32C259.321 570.658 285.64 449.057 367.293 367.404C448.946 285.751 570.547 259.432 701.209 282.971C831.869 306.51 971.539 379.901 1089.23 497.589Z"
    stroke="black" />
  <path
    d="M1159.78 427.032C1277.47 544.72 1350.86 684.39 1374.4 815.05C1397.94 945.712 1371.62 1067.31 1289.97 1148.97C1208.31 1230.62 1086.71 1256.94 956.051 1233.4C825.391 1209.86 685.721 1136.47 568.034 1018.78C450.346 901.094 376.955 761.424 353.416 630.764C329.877 500.102 356.196 378.5 437.849 296.848C519.502 215.195 641.103 188.876 771.765 212.415C902.426 235.953 1042.1 309.345 1159.78 427.032Z"
    stroke="black" />
</svg>