<svg width="24" height="24" viewBox="0 0 24 24" fill="none" xmlns="http://www.w3.org/2000/svg">
  <path fill-rule="evenodd" clip-rule="evenodd" d="M20.4054 3.5875C18.1607 1.3425 15.1714 0.0975 11.9946 0.0975C5.4375 0.0975 0.101786 5.43321 0.101786 11.9904C0.101786 14.1064 0.648214 16.1636 1.69286 17.9625L0 24L6.17143 22.3393C7.90714 23.2982 9.92679 23.7964 11.9893 23.7964H11.9946C18.5464 23.7964 24 18.4607 24 11.9036C24 8.72679 22.65 5.8325 20.4054 3.5875Z" fill="#0A87FF"/>
  <path fill-rule="evenodd" clip-rule="evenodd" d="M17.4161 14.4975C17.1214 14.3507 15.6643 13.6339 15.3911 13.5386C15.1179 13.4432 14.9196 13.3957 14.7214 13.6907C14.5232 13.9857 13.9607 14.6507 13.7839 14.8489C13.6071 15.0471 13.4304 15.0682 13.1357 14.9214C12.8411 14.7746 11.8929 14.4657 10.7679 13.4646C9.88929 12.6814 9.30000 11.7171 9.12321 11.4221C8.94643 11.1271 9.10714 10.9607 9.25714 10.8107C9.39643 10.6739 9.56250 10.4557 9.71786 10.2789C9.87321 10.1021 9.92143 9.96964 10.0179 9.77143C10.1143 9.57321 10.0661 9.39643 9.99643 9.24964C9.92679 9.10286 9.34286 7.64357 9.09643 7.05321C8.85 6.48214 8.6025 6.55714 8.41607 6.54643C8.23929 6.54107 8.04107 6.54107 7.84286 6.54107C7.64464 6.54107 7.32321 6.61071 7.05000 6.90571C6.77679 7.20071 6.01071 7.91786 6.01071 9.37714C6.01071 10.8364 7.07143 12.2439 7.22679 12.4421C7.38214 12.6404 9.29464 15.5821 12.2196 16.8696C12.9857 17.2071 13.5857 17.4107 14.0518 17.5629C14.8286 17.8204 15.5357 17.7829 16.0982 17.7132C16.7196 17.6357 17.8607 16.9982 18.1071 16.3125C18.3536 15.6268 18.3536 15.0364 18.2839 14.9214C18.2143 14.8064 18.0161 14.7375 17.4161 14.4975Z" fill="white"/>
</svg>