<svg width="19" height="19" viewBox="0 0 19 19" fill="none" xmlns="http://www.w3.org/2000/svg">
  <path
    d="M14.5272 3.99077C13.8395 3.29635 13.0205 2.74574 12.1178 2.37104C11.2152 1.99634 10.247 1.80503 9.26971 1.80827C5.17471 1.80827 1.83721 5.14577 1.83721 9.24077C1.83721 10.5533 2.18221 11.8283 2.82721 12.9533L1.77721 16.8083L5.71471 15.7733C6.80221 16.3658 8.02471 16.6808 9.26971 16.6808C13.3647 16.6808 16.7022 13.3433 16.7022 9.24827C16.7022 7.26077 15.9297 5.39327 14.5272 3.99077ZM9.26971 15.4208C8.15971 15.4208 7.07221 15.1208 6.11971 14.5583L5.89471 14.4233L3.55471 15.0383L4.17721 12.7583L4.02721 12.5258C3.41037 11.5411 3.0829 10.4027 3.08221 9.24077C3.08221 5.83577 5.85721 3.06077 9.26221 3.06077C10.9122 3.06077 12.4647 3.70577 13.6272 4.87577C14.2029 5.44867 14.6591 6.13018 14.9694 6.88076C15.2797 7.63135 15.4379 8.43608 15.4347 9.24827C15.4497 12.6533 12.6747 15.4208 9.26971 15.4208ZM12.6597 10.8008C12.4722 10.7108 11.5572 10.2608 11.3922 10.1933C11.2197 10.1333 11.0997 10.1033 10.9722 10.2833C10.8447 10.4708 10.4922 10.8908 10.3872 11.0108C10.2822 11.1383 10.1697 11.1533 9.98221 11.0558C9.79471 10.9658 9.19471 10.7633 8.48971 10.1333C7.93471 9.63827 7.56721 9.03077 7.45471 8.84327C7.34971 8.65577 7.43971 8.55827 7.53721 8.46077C7.61971 8.37827 7.72471 8.24327 7.81471 8.13827C7.90471 8.03327 7.94221 7.95077 8.00221 7.83077C8.06221 7.70327 8.03221 7.59827 7.98721 7.50827C7.94221 7.41827 7.56721 6.50327 7.41721 6.12827C7.26721 5.76827 7.10971 5.81327 6.99721 5.80577H6.63721C6.50971 5.80577 6.31471 5.85077 6.14221 6.03827C5.97721 6.22577 5.49721 6.67577 5.49721 7.59077C5.49721 8.50577 6.16471 9.39077 6.25471 9.51077C6.34471 9.63827 7.56721 11.5133 9.42721 12.3158C9.86971 12.5108 10.2147 12.6233 10.4847 12.7058C10.9272 12.8483 11.3322 12.8258 11.6547 12.7808C12.0147 12.7283 12.7572 12.3308 12.9072 11.8958C13.0647 11.4608 13.0647 11.0933 13.0122 11.0108C12.9597 10.9283 12.8472 10.8908 12.6597 10.8008Z"
    fill="#0A87FF" />
</svg>